<svg width="33" height="39" viewBox="0 0 33 39" fill="none" xmlns="http://www.w3.org/2000/svg">
<path fill-rule="evenodd" clip-rule="evenodd" d="M31.388 9.1603C31.6388 8.47542 31.2073 7.75117 30.549 7.75214L23.221 7.76298C22.4546 7.76411 21.9708 8.71964 22.3848 9.41441L23.2242 10.8231L2.31851 25.2213C0.95397 26.1611 0.609638 28.0291 1.54942 29.3936C2.48921 30.7582 4.35723 31.1025 5.72177 30.1627L26.302 15.9887L26.921 17.0277C27.335 17.7224 28.3043 17.5817 28.5962 16.7844L31.388 9.1603Z" fill="#170A39"/>
<path fill-rule="evenodd" clip-rule="evenodd" d="M31.3337 31.2786C31.9984 31.2919 32.4612 30.5982 32.2389 29.9217L29.3767 21.2113C29.1147 20.414 28.1285 20.2452 27.6779 20.9206L26.1769 23.1706L5.68809 7.36868C4.3761 6.35682 2.49225 6.60012 1.48039 7.9121C0.468528 9.22408 0.711824 11.1079 2.02381 12.1198L22.8392 28.1736L21.9811 29.4599C21.5305 30.1354 21.9912 31.0918 22.7746 31.1075L31.3337 31.2786Z" fill="#170A39"/>
</svg>
